<svg xmlns="http://www.w3.org/2000/svg" viewBox="0 0 95 40"><title>Asset 1</title><g id="Layer_2" data-name="Layer 2"><g id="_01-main" data-name="01-main"><g id="header"><g id="elle-logo"><path d="M41.92,30.63A14.06,14.06,0,0,1,41,36c-.85,1.94-2.81,3-6,3.38a10.75,10.75,0,0,1-1.43,0V.53h2.9V0H26V.54H28.9V39.42H26V40H42.29V29.66H42Zm27.56,0a14,14,0,0,1-.9,5.41c-.85,1.94-2.81,3-6,3.38a10.77,10.77,0,0,1-1.43,0V.53H64V0H53.61V.54h2.85V39.42H53.58V40H69.85V29.66h-.32Zm-53.58,0a14,14,0,0,1-.9,5.41c-1.11,2.54-4,3.12-6,3.33a10.49,10.49,0,0,1-1.43,0V20.09a13.21,13.21,0,0,1,2,.13,3.33,3.33,0,0,1,2.21,2,13.84,13.84,0,0,1,.5,4.18l0,.84h.33V12.56h-.33l0,.84a13.84,13.84,0,0,1-.5,4.18,3.25,3.25,0,0,1-2.21,2,13.1,13.1,0,0,1-2,.15V.61A10.64,10.64,0,0,1,9,.61c2.13.22,4.89,1,6,3.58a14,14,0,0,1,.9,5.41l0,1h.31V0H0V.57H2.81l.08,0V39.4H0V40H16.27V29.69h-.32Zm78.77-1,0,1a14.06,14.06,0,0,1-.9,5.41c-1.11,2.54-4,3.12-6,3.33a10.9,10.9,0,0,1-1.43,0V20.1a12.93,12.93,0,0,1,2,.13,3.33,3.33,0,0,1,2.21,2,13.83,13.83,0,0,1,.5,4.18l0,.84h.33V12.57H91l0,.84a13.82,13.82,0,0,1-.5,4.18,3.25,3.25,0,0,1-2.2,2,13.26,13.26,0,0,1-2,.15V.62a10.55,10.55,0,0,1,1.43,0c2.13.22,4.89,1,6,3.58a14,14,0,0,1,.9,5.41l0,1H95V0H78.76V.58h2.77l.08,0V39.41H78.73V40H95V29.69ZM70,18.09A1.73,1.73,0,0,0,68,16.34H66.25v6.49h.65v-3h.25l2.3,3h.77l-2.38-3C69.5,19.73,70,18.89,70,18.09Zm-3,1.23V16.86h.82c.78,0,1.55.16,1.55,1.23,0,.52-.2,1.23-1.71,1.23Zm8.29,1.18c0,.25,0,2-1.73,2s-1.73-1.74-1.73-2V16.34h-.65v4.07a2.39,2.39,0,1,0,4.75,0V16.34h-.65Z" fill="#fff" fill-rule="evenodd"/></g></g></g></g></svg>